<?xml version="1.0" encoding="UTF-8"?>
<svg width="996px" height="601px" viewBox="0 0 996 601" version="1.1" xmlns="http://www.w3.org/2000/svg" xmlns:xlink="http://www.w3.org/1999/xlink">
    <!-- Generator: Sketch 63.1 (92452) - https://sketch.com -->
    <title>bg</title>
    <desc>Created with Sketch.</desc>
    <g id="Export" stroke="none" stroke-width="1" fill="none" fill-rule="evenodd">
        <g id="Spisum-APP_Login-Screen_V1-BC" transform="translate(-102.000000, -84.000000)">
            <g id="bg" transform="translate(102.000000, 84.000000)">
                <path d="M996,326.737249 C996,256.734257 931.477295,199.985669 851.884236,199.985669 C850.30889,199.985669 848.750487,200.045828 847.187323,200.090027 C823.177016,86.2280907 709.675475,0 573.260458,0 C457.195943,0 357.721495,62.4229432 315.83279,151.173236 C284.883767,138.502472 252.991704,132.185485 220.97748,132.384868 C98.9349418,132.384868 0,219.399324 0,326.737127 C0,424.241123 81.643112,504.959928 188.080553,518.9344 C267.570313,594.070313 390.214704,594.070312 522.019274,554.889786 C706.371094,594.070312 894.137806,545.266869 925.442924,435.730349 C967.682331,413.631326 996,373.1009 996,326.737249 Z" id="Path" fill="#EFEFEF"></path>
                <path d="M822.270702,86.9156822 L787.501648,115.067086 C785.252017,116.889389 785.584241,120.412918 788.134828,121.782714 L816.940042,137.252762 C819.430885,138.590197 822.492929,137.032925 822.875964,134.232515 L828.839803,90.611621 C829.336184,86.9742682 825.124478,84.6046045 822.270702,86.9156822" id="Fill-84" fill="#FF9600" transform="translate(807.439995, 111.869450) rotate(-180.000000) translate(-807.439995, -111.869450) "></path>
                <path d="M402.521312,560.37171 L378.970262,586.604283 C377.446498,588.301603 378.143889,591.002138 380.299157,591.751481 L404.64252,600.207949 C406.747536,600.938879 408.936306,599.345898 408.885495,597.119073 L408.093183,562.430589 C408.027296,559.538673 404.454353,558.218535 402.521312,560.37171" id="Fill-86" fill="#FF9600"></path>
                <path d="M863.484052,569.377066 L832.677118,553.370817 C830.109222,552.036172 827.23032,554.529703 828.188465,557.259252 L839.858181,590.516006 C840.613642,592.668065 843.318894,593.357706 845.013516,591.830006 L864.149617,574.58006 C865.804594,573.08807 865.461203,570.404832 863.484052,569.377066" id="Fill-87" fill="#FF9600"></path>
                <path d="M790.821623,524 C778.217721,524 768,534.233534 768,546.856942 C768,559.479792 778.217721,569.713326 790.821623,569.713326 C803.425525,569.713326 813.643246,559.479792 813.643246,546.856942 C813.643246,534.233534 803.425525,524 790.821623,524" id="Fill-89" fill="#3732B4"></path>
            </g>
        </g>
    </g>
</svg>