<?xml version="1.0" encoding="utf-8"?>
<svg width="368px" height="434px" viewBox="0 0 368 434" version="1.1" xmlns:xlink="http://www.w3.org/1999/xlink" xmlns="http://www.w3.org/2000/svg">
  <desc>Created with Lunacy</desc>
  <g id="Group-11" transform="translate(0.5 0.5)">
    <g id="udelat-Copy">
      <g id="Group_8">
        <g id="Group_7">
          <g id="Group_3" transform="translate(41.00006 24.94061)">
            <g id="Group">
              <path d="M89.8842 64.361C80.3691 70.489 68.1732 63.069 61.2232 56.286C53.4922 48.738 48.0232 38.274 47.3162 27.409C46.6532 17.245 50.1872 6.20898 58.6242 0C42.9655 11.5293 27.3058 23.0583 11.6452 34.587C10.0158 35.7907 8.53126 37.1789 7.22119 38.724C5.86209 40.3356 4.68808 42.0946 3.72118 43.9679C2.68983 45.9702 1.87425 48.0763 1.28819 50.251C0.646683 52.6198 0.238403 55.0457 0.0691833 57.494C-0.0111847 58.702 -0.0215454 59.9137 0.0381622 61.123C0.0431824 61.272 0.025177 61.423 0.0331726 61.567C0.0441742 61.735 0.0811768 61.904 0.0921783 62.072C0.171173 63.172 0.292175 64.28 0.477173 65.383L0.510178 65.668L0.527176 65.744C0.70018 66.715 0.908173 67.679 1.15817 68.644C1.22118 68.883 1.30518 69.116 1.37117 69.355C1.40817 69.487 1.42717 69.622 1.46417 69.755C1.51517 69.932 1.59317 70.103 1.64717 70.278C1.96451 71.3086 2.32217 72.3283 2.72017 73.337C2.77617 73.476 2.81216 73.621 2.86816 73.761L2.96817 73.997L3.12817 74.36C3.26517 74.683 3.40018 75.005 3.54417 75.325C3.75217 75.777 3.97118 76.225 4.19118 76.669L4.25818 76.808L4.28618 76.865C4.54518 77.376 4.81418 77.881 5.08618 78.381C5.22317 78.624 5.36919 78.865 5.51118 79.106L5.64218 79.35L5.74219 79.515L5.94919 79.864C6.21019 80.299 6.48219 80.727 6.76118 81.151C6.87318 81.3219 6.99219 81.4899 7.10619 81.659L7.32919 81.987C7.4292 82.13 7.52019 82.271 7.6162 82.4109C7.78119 82.642 7.94719 82.8719 8.11619 83.099C8.24953 83.2816 8.38286 83.4616 8.51619 83.6389C8.62318 83.7789 8.73219 83.9159 8.84119 84.0539L9.08519 84.3619C9.20918 84.5209 9.32819 84.6809 9.45619 84.8349C9.78018 85.235 10.1109 85.6273 10.4482 86.0119L10.7352 86.327L10.9912 86.614C11.1562 86.793 11.3162 86.974 11.4822 87.153C11.8315 87.5263 12.1875 87.893 12.5502 88.253L12.7792 88.472L12.8722 88.572L13.0272 88.712C13.2352 88.912 13.4402 89.112 13.6542 89.312C14.1012 89.724 14.5542 90.124 15.0152 90.512L15.0222 90.519L15.0472 90.538C15.4992 90.918 15.9568 91.2873 16.4202 91.646C16.6282 91.807 16.8452 91.957 17.0552 92.111C17.2002 92.218 17.3462 92.327 17.4922 92.431C17.6192 92.522 17.7432 92.619 17.8712 92.707C18.3605 93.0496 18.8568 93.38 19.3602 93.698L19.6312 93.866L19.7312 93.923L20.0482 94.123C20.2792 94.262 20.5092 94.398 20.7432 94.53C20.9772 94.662 21.2112 94.793 21.4432 94.921C21.6752 95.049 21.9152 95.172 22.1542 95.29C22.5022 95.471 22.8542 95.641 23.2102 95.806C23.5662 95.971 23.9212 96.131 24.2782 96.283C24.6352 96.435 24.9972 96.583 25.3592 96.719C25.7212 96.855 26.0882 96.991 26.4542 97.119C27.1683 97.3628 27.895 97.5681 28.6312 97.734L28.7882 97.777C28.9712 97.818 29.1482 97.83 29.3292 97.864C29.6862 97.932 30.0442 98.016 30.3972 98.064C30.5262 98.081 30.6482 98.081 30.7762 98.095L31.0762 98.143C31.2442 98.16 31.4042 98.143 31.5692 98.16C32.0105 98.1907 32.4478 98.205 32.8811 98.203C33.0211 98.203 33.1622 98.223 33.3002 98.219C33.4382 98.215 33.5471 98.188 33.6712 98.183C33.8392 98.172 34.0082 98.183 34.1712 98.168C34.4352 98.145 34.6882 98.092 34.9482 98.056C35.1091 98.036 35.2801 98.036 35.4402 98.008C35.5641 97.987 35.6882 97.957 35.8132 97.933L36.1132 97.873L36.4692 97.798C36.8092 97.718 37.1412 97.626 37.4692 97.519L37.6122 97.468L37.6912 97.448L37.8352 97.389C38.0352 97.317 38.2422 97.252 38.4422 97.173C38.7191 97.062 38.9931 96.94 39.2651 96.81L39.3481 96.774L39.3841 96.759C39.5111 96.695 39.6391 96.632 39.7651 96.566C39.8911 96.5 40.0161 96.431 40.1411 96.366C40.2661 96.301 40.3891 96.223 40.5101 96.15C40.6311 96.077 40.7541 96.001 40.8741 95.925C57.2075 85.4103 73.5408 74.8957 89.8742 64.381L89.8742 64.381L89.8691 64.381L89.8742 64.381L89.8842 64.361Z" id="path9628-2" fill="#FF9600" stroke="none" />
            </g>
            <path d="M0 15L23 0" transform="translate(39.16217 71.375)" id="Line_3" fill="none" stroke="#FFFCFC" stroke-width="1" />
            <path d="M0 15L23 0" transform="translate(33.16217 65.375)" id="Line_4" fill="none" stroke="#FFFCFC" stroke-width="1" />
          </g>
          <g id="Group_2" transform="translate(239.519 164.0108)">
            <path d="M50.469 0.00497436C42.141 4.3663 33.8126 8.72529 25.484 13.082L0 26.421C0.167999 27.577 0.365005 28.7266 0.591003 29.87C0.691009 30.381 0.822998 30.883 0.938003 31.391C1.011 31.728 1.08501 32.066 1.166 32.404C1.23399 32.692 1.28999 32.984 1.366 33.272C1.65132 34.3986 1.96632 35.516 2.311 36.624C2.36301 36.789 2.42601 36.952 2.479 37.117L2.55501 37.396C2.61601 37.579 2.69801 37.753 2.755 37.937C2.976 38.597 3.18701 39.261 3.42801 39.916C3.69701 40.648 3.981 41.373 4.27602 42.097C4.33502 42.237 4.39502 42.37 4.45302 42.51C4.50401 42.633 4.55302 42.751 4.61002 42.873C4.80301 43.33 4.99701 43.793 5.19902 44.244C5.52202 44.955 5.85402 45.661 6.19902 46.359C6.39001 46.744 6.59003 47.123 6.78702 47.504L6.89601 47.735L6.99602 47.903C7.08902 48.08 7.17601 48.263 7.27202 48.438C7.58269 49.014 7.90002 49.585 8.22401 50.151C8.548 50.717 8.88301 51.278 9.22902 51.834C9.35602 52.043 9.49002 52.246 9.62003 52.451L9.80302 52.737C9.96303 52.989 10.118 53.237 10.28 53.489C10.6414 54.037 11.008 54.5783 11.38 55.113C11.733 55.613 12.093 56.113 12.459 56.608C12.582 56.774 12.706 56.931 12.831 57.093L12.908 57.208L13.008 57.329C13.197 57.577 13.385 57.829 13.579 58.076C13.96 58.56 14.346 59.037 14.739 59.512C15.132 59.987 15.534 60.453 15.939 60.919C16.098 61.099 16.26 61.276 16.423 61.456L16.58 61.632C16.727 61.795 16.875 61.961 17.024 62.124C17.3894 62.52 17.7617 62.9133 18.141 63.304C18.5204 63.6947 18.9027 64.0793 19.288 64.458C19.675 64.838 20.068 65.214 20.464 65.585L20.672 65.78L20.883 65.973L21.091 66.166L21.302 66.357C21.8047 66.813 22.3113 67.258 22.822 67.692C23.111 67.938 23.403 68.172 23.695 68.412L23.995 68.664C24.12 68.764 24.242 68.869 24.366 68.964C24.8873 69.3787 25.413 69.7843 25.943 70.181C26.398 70.52 26.856 70.848 27.319 71.173L27.404 71.238L27.445 71.266L27.545 71.335C28.2117 71.8017 28.882 72.25 29.556 72.68C29.963 72.939 30.371 73.18 30.779 73.428C30.935 73.521 31.09 73.621 31.247 73.712L31.602 73.931C32.29 74.331 32.982 74.7167 33.678 75.088C33.966 75.239 34.255 75.376 34.539 75.52L34.839 75.687L35.114 75.812C35.339 75.921 35.561 76.04 35.783 76.149C36.336 76.413 36.9 76.63 37.456 76.876C37.989 77.108 38.517 77.352 39.056 77.568C39.18 77.619 39.301 77.68 39.428 77.731C40.065 77.98 40.716 78.183 41.363 78.407C41.792 78.556 42.214 78.737 42.644 78.874L42.881 78.94L43.134 79.029C43.909 79.268 44.6931 79.453 45.4711 79.653C45.9031 79.765 46.332 79.902 46.766 80.001L46.893 80.034C48.1544 80.3213 49.421 80.5587 50.6931 80.746C51.3531 80.8433 52.0131 80.9273 52.673 80.998C53.333 81.067 53.996 81.125 54.658 81.166C55.32 81.207 55.9821 81.239 56.645 81.254C57.308 81.269 57.973 81.27 58.636 81.254C59.26 81.2447 59.877 81.2167 60.487 81.17C61.097 81.1233 61.702 81.062 62.302 80.986L62.543 80.947L62.643 80.939L62.8121 80.904C63.236 80.84 63.6611 80.779 64.0801 80.704C64.6641 80.594 65.2431 80.465 65.8111 80.324C65.9801 80.283 66.1431 80.232 66.3111 80.187L66.4551 80.156L66.6161 80.103C66.8531 80.037 67.092 79.976 67.329 79.903C67.8291 79.75 68.318 79.588 68.8061 79.412C69.1971 79.269 69.579 79.112 69.9611 78.961L70.0611 78.928L70.1121 78.903L70.2521 78.85C70.7241 78.65 71.191 78.438 71.652 78.214C71.803 78.143 71.9521 78.067 72.104 77.994C72.256 77.921 72.404 77.842 72.551 77.763C72.6981 77.684 72.8511 77.606 72.9961 77.527C73.1411 77.448 73.2881 77.364 73.4351 77.281L122.435 49.457L122.435 49.457C113.123 54.112 103.435 54.201 93.4591 51.492C70.5041 45.261 53.7271 22.992 50.4801 0L50.469 0.00497436Z" id="path9640-2" fill="#FF9600" stroke="none" />
            <path d="M0 15L28 0" transform="translate(14.86899 16.94098)" id="Line_8" fill="none" stroke="#FFFCFC" stroke-width="1" />
            <path d="M0 15L28 0" transform="translate(14.86899 16.94098)" id="Line_9" fill="none" stroke="#FFFCFC" stroke-width="1" />
            <path d="M0 15L28 0" transform="translate(11.86899 27.94097)" id="Line_10" fill="none" stroke="#FFFCFC" stroke-width="1" />
            <path d="M0 15L28 0" transform="translate(28.86898 31.94097)" id="Line_11" fill="none" stroke="#FFFCFC" stroke-width="1" />
            <path d="M0 15L28 0" transform="translate(24.86898 44.94097)" id="Line_12" fill="none" stroke="#FFFCFC" stroke-width="1" />
            <path d="M0 15L28 0" transform="translate(42.86898 43.94097)" id="Line_13" fill="none" stroke="#FFFCFC" stroke-width="1" />
          </g>
          <g id="Group_4" transform="translate(83.98157 131.9407)">
            <g id="Group">
              <path d="M50.447 0C42.123 3.89667 33.7983 7.79067 25.473 11.682L0 23.6C0.247333 24.784 0.524 25.9637 0.83 27.139C0.969 27.664 1.13 28.182 1.285 28.705C1.385 29.052 1.48 29.399 1.585 29.748C1.674 30.048 1.75 30.348 1.846 30.642C2.21267 31.804 2.60933 32.9583 3.036 34.105C3.1 34.276 3.175 34.445 3.236 34.616L3.336 34.904C3.411 35.093 3.506 35.276 3.58 35.466C3.851 36.15 4.111 36.837 4.402 37.517C4.72667 38.277 5.065 39.033 5.417 39.785C5.486 39.931 5.557 40.07 5.627 40.216C5.687 40.344 5.75 40.468 5.813 40.594C6.042 41.071 6.271 41.552 6.513 42.023C6.89166 42.765 7.281 43.5017 7.681 44.233C7.903 44.633 8.133 45.033 8.361 45.433L8.489 45.674L8.6 45.851C8.708 46.037 8.809 46.228 8.919 46.411C9.27633 47.015 9.64067 47.615 10.012 48.211C10.3833 48.807 10.7653 49.3977 11.158 49.983C11.302 50.204 11.458 50.418 11.601 50.634L11.808 50.934C11.989 51.2 12.165 51.465 12.349 51.728C12.757 52.3073 13.1707 52.8803 13.59 53.447C13.99 53.98 14.39 54.51 14.8 55.033C14.937 55.209 15.075 55.376 15.215 55.549L15.302 55.67L15.413 55.8C15.624 56.064 15.835 56.332 16.05 56.594C16.475 57.109 16.903 57.618 17.34 58.126C17.777 58.634 18.221 59.132 18.673 59.626C18.848 59.818 19.028 60.009 19.207 60.202L19.381 60.391C19.543 60.565 19.706 60.744 19.871 60.919C20.271 61.3437 20.6807 61.7667 21.1 62.188C21.5193 62.6093 21.9387 63.024 22.358 63.432C22.782 63.842 23.212 64.249 23.645 64.65L23.872 64.861L24.102 65.071L24.329 65.28L24.559 65.487C25.107 65.9823 25.6587 66.4663 26.214 66.939C26.529 67.207 26.845 67.463 27.162 67.725L27.492 68C27.628 68.108 27.76 68.224 27.892 68.332C28.4567 68.786 29.0257 69.2313 29.599 69.668C30.09 70.041 30.585 70.403 31.084 70.763L31.176 70.835L31.221 70.866L31.321 70.942C32.0377 71.4553 32.7587 71.9533 33.484 72.436C33.921 72.725 34.357 72.995 34.795 73.273C34.962 73.373 35.128 73.489 35.295 73.591L35.675 73.836C36.4083 74.2873 37.1477 74.723 37.893 75.143C38.2 75.315 38.508 75.472 38.81 75.637L39.132 75.825L39.424 75.969C39.664 76.094 39.9 76.229 40.137 76.354C40.725 76.654 41.322 76.914 41.912 77.198C42.478 77.468 43.039 77.749 43.606 77.998C43.737 78.057 43.867 78.127 44.001 78.187C44.675 78.481 45.36 78.728 46.042 78.997C46.495 79.176 46.942 79.386 47.395 79.552L47.644 79.634L47.911 79.741C48.726 80.033 49.548 80.271 50.365 80.523C50.818 80.664 51.271 80.831 51.724 80.959L51.857 81.001C53.1783 81.373 54.502 81.6947 55.828 81.966C56.516 82.1074 57.203 82.2347 57.889 82.348C58.575 82.46 59.263 82.561 59.95 82.648C60.637 82.735 61.322 82.807 62.008 82.864C62.694 82.921 63.381 82.964 64.064 82.994C64.708 83.024 65.3433 83.035 65.97 83.027C66.5967 83.019 67.2177 82.9953 67.833 82.956L68.08 82.932L68.18 82.932L68.353 82.907C68.787 82.869 69.222 82.834 69.653 82.781C70.253 82.706 70.839 82.613 71.416 82.506C71.588 82.475 71.753 82.434 71.916 82.398L72.063 82.376L72.226 82.332C72.467 82.281 72.71 82.232 72.95 82.177C73.45 82.053 73.95 81.921 74.445 81.777C74.839 81.657 75.225 81.524 75.609 81.393L75.709 81.365L75.76 81.342L75.906 81.3C76.381 81.125 76.849 80.942 77.312 80.744C77.463 80.682 77.612 80.614 77.765 80.549C77.918 80.484 78.065 80.414 78.212 80.343C78.359 80.272 78.512 80.202 78.657 80.132C78.802 80.062 78.948 79.986 79.094 79.91C95.3687 71.5353 111.646 63.1617 127.925 54.789L127.925 54.789C118.603 58.92 108.606 58.389 98.125 55.007C74.017 47.219 55.267 23.548 50.447 0L50.447 0Z" transform="matrix(0.7547096 -0.656059 0.656059 0.7547096 0 83.92633)" id="path9640-3" fill="#FF9600" stroke="none" />
            </g>
            <path d="M0 30L11 0" transform="translate(31.12006 63.51074)" id="Line_1" fill="none" stroke="#F0ECEC" stroke-width="1" />
            <path d="M0 30L11 0" transform="translate(37.69702 67.2937)" id="Line_2" fill="none" stroke="#FDF7F7" stroke-width="1" />
            <path d="M0 30L11 0" transform="translate(44.27502 72.96875)" id="Line_14" fill="none" stroke="#FDF7F7" stroke-width="1" />
            <path d="M0 30L11 0" transform="translate(54.14105 69.18573)" id="Line_15" fill="none" stroke="#FDF7F7" stroke-width="1" />
            <path d="M0 30L11 0" transform="translate(58.52704 80.53473)" id="Line_16" fill="none" stroke="#FDF7F7" stroke-width="1" />
            <path d="M0 30L11 0" transform="translate(70.58502 69.18573)" id="Line_17" fill="none" stroke="#FDF7F7" stroke-width="1" />
            <path d="M0 30L11 0" transform="translate(74.97107 77.69775)" id="Line_18" fill="none" stroke="#FDF7F7" stroke-width="1" />
          </g>
          <g id="Group_5" transform="translate(194.6132 15.01416)">
            <g id="g9564" transform="matrix(-0.9205049 0.3907312 -0.3907312 -0.9205049 172.3868 112.3948)">
              <g id="Group" transform="matrix(-0.92 -0.39 0.39 -0.92 102.0178 122.1011)">
                <path d="M98.73 24.3252C88.898 15.6162 79.164 4.61423 65.868 0.973206C53.668 -2.36981 41.991 3.46222 32.107 9.9212C20.821 17.2962 10.577 26.1972 0 34.4762C0.330994 34.2822 0.671997 34.0972 1.008 33.9142C2.073 33.3342 3.21599 32.7682 4.39 32.2312L4.703 32.0542L4.87201 31.9622C9.01743 29.6752 13.4596 27.9733 18.072 26.9052C19.4452 26.6097 20.8372 26.4093 22.238 26.3052C37.771 25.2471 62.376 50.1221 63.322 51.2051C68.1531 48.4739 72.691 45.2537 76.864 41.5952C86.477 33.5362 97.799 23.5012 98.727 24.3212L98.73 24.3252Z" transform="matrix(-0.9205049 0.3907312 -0.3907312 -0.9205049 110.8889 47.13458)" id="path9568-2" fill="#FF9600" stroke="none" />
              </g>
            </g>
            <path d="M0 19L11 0" transform="translate(56.93365 76.12555)" id="Line_6" fill="none" stroke="#FFFCFC" stroke-width="1" />
            <path d="M0 19L11 0" transform="translate(59.93365 83.12555)" id="Line_7" fill="none" stroke="#FFFCFC" stroke-width="1" />
            <path d="M0 19L11 0" transform="translate(70.93365 76.12555)" id="Line_19" fill="none" stroke="#FFFCFC" stroke-width="1" />
          </g>
          <g id="Group" transform="translate(173.8413 0)">
            <path d="M7.415 3.58402C8.215 3.98401 0.101997 0.399017 0 0C2.51 9.78699 9.047 19.065 17.172 25.428C18.5334 26.4952 19.9529 27.4861 21.424 28.396C29.9 33.629 39.147 37.859 48.003 42.407C56.572 46.807 65.122 51.799 74.063 55.447C74.063 55.447 72.114 54.391 72.276 54.475C61.6159 48.2497 53.7247 38.2004 50.205 26.368C50.142 26.141 50.066 25.916 50.005 25.687C49.71 24.532 43.989 22.387 42.773 21.748C39.493 20.0187 36.206 18.3037 32.912 16.603C24.436 12.216 15.949 7.85403 7.41199 3.58402L7.415 3.58402Z" transform="matrix(0.358368 -0.9335804 0.9335804 0.358368 0 69.14374)" id="path9592-4" fill="#FF9600" stroke="none" />
          </g>
          <g id="g9636" transform="translate(0 218.9406)">
            <path d="M35.091 0.00497436C29.3003 4.3663 23.5097 8.72529 17.719 13.082L0 26.421C0.116669 27.577 0.253662 28.7266 0.410995 29.87C0.481995 30.381 0.571991 30.883 0.651993 31.391C0.702988 31.728 0.751999 32.066 0.810989 32.404C0.857986 32.692 0.896988 32.984 0.94899 33.272C1.14899 34.3986 1.368 35.516 1.60599 36.624C1.64198 36.789 1.68599 36.952 1.72299 37.117L1.77599 37.396C1.81898 37.579 1.87599 37.753 1.91699 37.937C2.071 38.597 2.217 39.261 2.38499 39.916C2.57199 40.648 2.76999 41.373 2.97499 42.097C3.01599 42.237 3.05798 42.37 3.09799 42.51C3.133 42.633 3.17 42.751 3.20699 42.873C3.34099 43.33 3.47598 43.793 3.61699 44.244C3.84099 44.955 4.07199 45.661 4.31699 46.359C4.44998 46.744 4.58899 47.123 4.72598 47.504L4.80199 47.735L4.86998 47.903C4.93498 48.08 4.99498 48.263 5.06198 48.438C5.27798 49.014 5.49866 49.585 5.72398 50.151C5.94931 50.717 6.18265 51.278 6.42398 51.834C6.51198 52.043 6.60599 52.246 6.69598 52.451L6.82298 52.737C6.93397 52.989 7.04198 53.237 7.15498 53.489C7.40631 54.037 7.66165 54.5783 7.92099 55.113C8.16699 55.613 8.42099 56.113 8.67099 56.608C8.756 56.774 8.84199 56.931 8.92999 57.093L8.98399 57.208L9.054 57.329C9.186 57.577 9.31599 57.829 9.45399 58.076C9.71899 58.56 9.987 59.037 10.261 59.512C10.535 59.987 10.814 60.453 11.098 60.919C11.208 61.099 11.321 61.276 11.435 61.456L11.544 61.632C11.644 61.795 11.744 61.961 11.853 62.124C12.107 62.52 12.366 62.9133 12.63 63.304C12.894 63.6947 13.1607 64.0793 13.43 64.458C13.6967 64.8373 13.9693 65.213 14.248 65.585L14.393 65.78L14.539 65.973L14.684 66.166L14.83 66.357C15.1793 66.813 15.5317 67.258 15.887 67.692C16.087 67.938 16.287 68.172 16.494 68.412L16.705 68.664C16.792 68.764 16.876 68.869 16.963 68.964C17.3257 69.3787 17.6923 69.7843 18.063 70.181C18.379 70.52 18.698 70.848 19.02 71.173L19.079 71.238L19.108 71.266L19.175 71.335C19.6377 71.8017 20.1044 72.25 20.575 72.68C20.858 72.939 21.141 73.18 21.425 73.428C21.533 73.521 21.641 73.621 21.75 73.712L21.997 73.931C22.4757 74.331 22.9567 74.7167 23.44 75.088C23.64 75.239 23.84 75.376 24.04 75.52L24.25 75.687L24.441 75.812C24.598 75.921 24.752 76.04 24.906 76.149C25.291 76.413 25.683 76.63 26.069 76.876C26.44 77.108 26.807 77.352 27.18 77.568C27.266 77.619 27.351 77.68 27.439 77.731C27.882 77.98 28.339 78.183 28.784 78.407C29.084 78.556 29.375 78.737 29.675 78.874L29.84 78.94L30.016 79.029C30.555 79.268 31.1 79.453 31.641 79.653C31.941 79.765 32.241 79.902 32.541 80.001L32.629 80.034C33.4961 80.319 34.378 80.5567 35.271 80.746C35.7296 80.8433 36.1886 80.9273 36.648 80.998C37.107 81.067 37.568 81.125 38.028 81.166C38.488 81.207 38.949 81.239 39.409 81.254C39.869 81.269 40.332 81.27 40.793 81.254C41.227 81.2447 41.656 81.2167 42.08 81.17C42.506 81.125 42.925 81.064 43.342 80.986L43.51 80.947L43.577 80.939L43.695 80.904C43.99 80.84 44.286 80.779 44.577 80.704C44.983 80.594 45.385 80.465 45.777 80.324C45.895 80.283 46.008 80.232 46.123 80.187L46.223 80.156L46.335 80.103C46.5 80.037 46.666 79.976 46.835 79.903C47.181 79.75 47.523 79.588 47.862 79.412C48.134 79.269 48.4 79.112 48.662 78.961L48.729 78.928L48.764 78.903L48.864 78.85C49.192 78.65 49.517 78.438 49.837 78.214C49.937 78.143 50.047 78.067 50.151 77.994C50.255 77.921 50.36 77.842 50.462 77.763C50.564 77.684 50.669 77.606 50.772 77.527C50.875 77.448 50.972 77.364 51.077 77.281L85.143 49.457L85.143 49.457C78.668 54.112 71.935 54.201 64.996 51.492C49.036 45.261 37.371 22.992 35.113 0L35.091 0.00497436Z" id="path9640-4" fill="#FF9600" stroke="none" />
          </g>
          <path d="M4.906 9.13901C5.437 10.162 0.0680008 1.017 0 0C1.661 24.955 5.986 48.615 11.361 64.839C12.271 67.586 13.212 70.116 14.174 72.407C19.782 85.752 25.9 96.536 31.759 108.133C37.429 119.359 43.085 132.082 49.001 141.384C49.001 141.384 47.711 138.691 47.819 138.905C41.013 124.146 35.298 96.287 33.219 67.235C33.178 66.657 33.127 66.082 33.088 65.498C32.893 62.554 29.108 57.098 28.303 55.455C26.133 51.045 23.9583 46.6717 21.779 42.335C16.171 31.149 10.556 20.025 4.90799 9.13498L4.906 9.13901Z" transform="matrix(0.358368 -0.9335804 0.9335804 0.358368 193.8414 309.3466)" id="path9592-13" fill="#FF9600" stroke="none" />
        </g>
      </g>
    </g>
    <g id="Group-Copy-7" transform="translate(93.44739 289.4964)">
      <path d="M11.175 5.08801C12.384 5.65802 0.154007 0.56601 0 0C3.783 13.892 13.635 27.063 25.88 36.1C27.9383 37.6192 30.0774 39.0256 32.288 40.313C45.062 47.742 58.998 53.745 72.345 60.201C85.26 66.451 98.145 73.533 111.621 78.711C111.621 78.711 108.683 77.211 108.928 77.331C93.428 69.115 80.405 53.606 75.665 37.431C75.571 37.109 75.456 36.789 75.365 36.464C74.921 34.825 66.298 31.785 64.465 30.873C59.5217 28.4183 54.5677 25.985 49.603 23.573C36.829 17.346 24.038 11.153 11.172 5.09302L11.175 5.08801Z" transform="matrix(0.8290376 -0.5591929 0.5591929 0.8290376 0 77.26331)" id="path9592-12" fill="#FDAB35" stroke="#FF9600" stroke-width="1" />
      <path d="M11.175 5.08801C12.384 5.65802 0.154007 0.56601 0 0C3.783 13.892 13.635 27.063 25.88 36.1C27.9383 37.6192 30.0774 39.0256 32.288 40.313C45.062 47.742 58.998 53.745 72.345 60.201C85.26 66.451 98.145 73.533 111.621 78.711C111.621 78.711 108.683 77.211 108.928 77.331C93.428 69.115 80.405 53.606 75.665 37.431C75.571 37.109 75.456 36.789 75.365 36.464C74.921 34.825 66.298 31.785 64.465 30.873C59.5217 28.4183 54.5677 25.985 49.603 23.573C36.829 17.346 24.038 11.153 11.172 5.09302L11.175 5.08801Z" transform="matrix(0.8290376 -0.5591929 0.5591929 0.8290376 1.000061 76.00891)" id="path9592-12-Copy" fill="#FDAB35" stroke="#FF9600" stroke-width="1" />
      <path d="M11.175 5.08801C12.384 5.65802 0.154007 0.56601 0 0C3.783 13.892 13.635 27.063 25.88 36.1C27.9383 37.6192 30.0774 39.0256 32.288 40.313C45.062 47.742 58.998 53.745 72.345 60.201C85.26 66.451 98.145 73.533 111.621 78.711C111.621 78.711 108.683 77.211 108.928 77.331C93.428 69.115 80.405 53.606 75.665 37.431C75.571 37.109 75.456 36.789 75.365 36.464C74.921 34.825 66.298 31.785 64.465 30.873C59.5217 28.4183 54.5677 25.985 49.603 23.573C36.829 17.346 24.038 11.153 11.172 5.09302L11.175 5.08801Z" transform="matrix(0.8290376 -0.5591929 0.5591929 0.8290376 1.999939 75.00891)" id="path9592-12-Copy-2" fill="#FDAB35" stroke="#FF9600" stroke-width="1" />
      <path d="M11.175 5.08801C12.384 5.65802 0.154007 0.56601 0 0C3.783 13.892 13.635 27.063 25.88 36.1C27.9383 37.6192 30.0774 39.0256 32.288 40.313C45.062 47.742 58.998 53.745 72.345 60.201C85.26 66.451 98.145 73.533 111.621 78.711C111.621 78.711 108.683 77.211 108.928 77.331C93.428 69.115 80.405 53.606 75.665 37.431C75.571 37.109 75.456 36.789 75.365 36.464C74.921 34.825 66.298 31.785 64.465 30.873C59.5217 28.4183 54.5677 25.985 49.603 23.573C36.829 17.346 24.038 11.153 11.172 5.09302L11.175 5.08801Z" transform="matrix(0.8290376 -0.5591929 0.5591929 0.8290376 2.000061 73.26331)" id="path9592-12-Copy-3" fill="#FDAB35" stroke="#FF9600" stroke-width="1" />
      <path d="M11.175 5.08801C12.384 5.65802 0.154007 0.56601 0 0C3.783 13.892 13.635 27.063 25.88 36.1C27.9383 37.6192 30.0774 39.0256 32.288 40.313C45.062 47.742 58.998 53.745 72.345 60.201C85.26 66.451 98.145 73.533 111.621 78.711C111.621 78.711 108.683 77.211 108.928 77.331C93.428 69.115 80.405 53.606 75.665 37.431C75.571 37.109 75.456 36.789 75.365 36.464C74.921 34.825 66.298 31.785 64.465 30.873C59.5217 28.4183 54.5677 25.985 49.603 23.573C36.829 17.346 24.038 11.153 11.172 5.09302L11.175 5.08801Z" transform="matrix(0.8290376 -0.5591929 0.5591929 0.8290376 2.999939 72.26331)" id="path9592-12-Copy-4" fill="#FDAB35" stroke="#FF9600" stroke-width="1" />
      <path d="M11.175 5.08801C12.384 5.65802 0.154007 0.56601 0 0C3.783 13.892 13.635 27.063 25.88 36.1C27.9383 37.6192 30.0774 39.0256 32.288 40.313C45.062 47.742 58.998 53.745 72.345 60.201C85.26 66.451 98.145 73.533 111.621 78.711C111.621 78.711 108.683 77.211 108.928 77.331C93.428 69.115 80.405 53.606 75.665 37.431C75.571 37.109 75.456 36.789 75.365 36.464C74.921 34.825 66.298 31.785 64.465 30.873C59.5217 28.4183 54.5677 25.985 49.603 23.573C36.829 17.346 24.038 11.153 11.172 5.09302L11.175 5.08801Z" transform="matrix(0.8290376 -0.5591929 0.5591929 0.8290376 3.000061 71.26331)" id="path9592-12-Copy-5" fill="#FDAB35" stroke="#FF9600" stroke-width="1" />
      <path d="M11.175 5.08801C12.384 5.65802 0.154007 0.56601 0 0C3.783 13.892 13.635 27.063 25.88 36.1C27.9383 37.6192 30.0774 39.0256 32.288 40.313C45.062 47.742 58.998 53.745 72.345 60.201C85.26 66.451 98.145 73.533 111.621 78.711C111.621 78.711 108.683 77.211 108.928 77.331C93.428 69.115 80.405 53.606 75.665 37.431C75.571 37.109 75.456 36.789 75.365 36.464C74.921 34.825 66.298 31.785 64.465 30.873C59.5217 28.4183 54.5677 25.985 49.603 23.573C36.829 17.346 24.038 11.153 11.172 5.09302L11.175 5.08801Z" transform="matrix(0.8290376 -0.5591929 0.5591929 0.8290376 3.999939 70.26331)" id="path9592-12-Copy-6" fill="#FDAB35" stroke="#FF9600" stroke-width="1" />
      <path d="M11.175 5.08801C12.384 5.65802 0.154007 0.56601 0 0C3.783 13.892 13.635 27.063 25.88 36.1C27.9383 37.6192 30.0774 39.0256 32.288 40.313C45.062 47.742 58.998 53.745 72.345 60.201C85.26 66.451 98.145 73.533 111.621 78.711C111.621 78.711 108.683 77.211 108.928 77.331C93.428 69.115 80.405 53.606 75.665 37.431C75.571 37.109 75.456 36.789 75.365 36.464C74.921 34.825 66.298 31.785 64.465 30.873C59.5217 28.4183 54.5677 25.985 49.603 23.573C36.829 17.346 24.038 11.153 11.172 5.09302L11.175 5.08801Z" transform="matrix(0.8290376 -0.5591929 0.5591929 0.8290376 4.000061 69.26331)" id="path9592-12-Copy-7" fill="#FDAB35" stroke="#FF9600" stroke-width="1" />
      <path d="M11.175 5.08801C12.384 5.65802 0.154007 0.56601 0 0C3.783 13.892 13.635 27.063 25.88 36.1C27.9383 37.6192 30.0774 39.0256 32.288 40.313C45.062 47.742 58.998 53.745 72.345 60.201C85.26 66.451 98.145 73.533 111.621 78.711C111.621 78.711 108.683 77.211 108.928 77.331C93.428 69.115 80.405 53.606 75.665 37.431C75.571 37.109 75.456 36.789 75.365 36.464C74.921 34.825 66.298 31.785 64.465 30.873C59.5217 28.4183 54.5677 25.985 49.603 23.573C36.829 17.346 24.038 11.153 11.172 5.09302L11.175 5.08801Z" transform="matrix(0.8290376 -0.5591929 0.5591929 0.8290376 4.999939 68.26331)" id="path9592-12-Copy-8" fill="#FDAB35" stroke="#FF9600" stroke-width="1" />
      <path d="M11.175 5.08801C12.384 5.65802 0.154007 0.56601 0 0C3.783 13.892 13.635 27.063 25.88 36.1C27.9383 37.6192 30.0774 39.0256 32.288 40.313C45.062 47.742 58.998 53.745 72.345 60.201C85.26 66.451 98.145 73.533 111.621 78.711C111.621 78.711 108.683 77.211 108.928 77.331C93.428 69.115 80.405 53.606 75.665 37.431C75.571 37.109 75.456 36.789 75.365 36.464C74.921 34.825 66.298 31.785 64.465 30.873C59.5217 28.4183 54.5677 25.985 49.603 23.573C36.829 17.346 24.038 11.153 11.172 5.09302L11.175 5.08801Z" transform="matrix(0.8290376 -0.5591929 0.5591929 0.8290376 5.000061 67.26331)" id="path9592-12-Copy-9" fill="#FDAB35" stroke="#FF9600" stroke-width="1" />
      <path d="M11.175 5.08801C12.384 5.65802 0.154007 0.56601 0 0C3.783 13.892 13.635 27.063 25.88 36.1C27.9383 37.6192 30.0774 39.0256 32.288 40.313C45.062 47.742 58.998 53.745 72.345 60.201C85.26 66.451 98.145 73.533 111.621 78.711C111.621 78.711 108.683 77.211 108.928 77.331C93.428 69.115 80.405 53.606 75.665 37.431C75.571 37.109 75.456 36.789 75.365 36.464C74.921 34.825 66.298 31.785 64.465 30.873C59.5217 28.4183 54.5677 25.985 49.603 23.573C36.829 17.346 24.038 11.153 11.172 5.09302L11.175 5.08801Z" transform="matrix(0.8290376 -0.5591929 0.5591929 0.8290376 5.999939 66.26331)" id="path9592-12-Copy-10" fill="#FDAB35" stroke="#FF9600" stroke-width="1" />
      <path d="M11.175 5.08801C12.384 5.65802 0.154007 0.56601 0 0C3.783 13.892 13.635 27.063 25.88 36.1C27.9383 37.6192 30.0774 39.0256 32.288 40.313C45.062 47.742 58.9981 53.745 72.345 60.201C85.26 66.451 110.078 71.0759 116.71 61.3309C116.71 61.3309 114.365 67.0953 89.4565 55.2397C79.6126 50.5544 76.7714 41.2066 75.665 37.431C75.571 37.1091 75.456 36.789 75.365 36.464C74.921 34.825 66.298 31.785 64.465 30.873C59.5217 28.4183 54.5677 25.985 49.603 23.573C36.829 17.346 24.038 11.153 11.172 5.09302L11.175 5.08801Z" transform="matrix(0.8290376 -0.5591929 0.5591929 0.8290376 6.000061 65.26331)" id="path9592-12-Copy-11" fill="#FDAB35" stroke="#FF9600" stroke-width="1" />
    </g>
  </g>
</svg>