<?xml version="1.0" encoding="UTF-8"?>
<svg width="125px" height="34px" viewBox="0 0 125 34" version="1.1" xmlns="http://www.w3.org/2000/svg" xmlns:xlink="http://www.w3.org/1999/xlink">
    <!-- Generator: Sketch 63.1 (92452) - https://sketch.com -->
    <title>SpisUm_logo_pozitiv</title>
    <desc>Created with Sketch.</desc>
    <g id="Export" stroke="none" stroke-width="1" fill="none" fill-rule="evenodd">
        <g id="Spisum-APP_Homepage_V2-B" transform="translate(-54.000000, -9.000000)" fill="#FFFFFF">
            <g id="SpisUm_logo_pozitiv" transform="translate(54.000000, 9.000000)">
                <path d="M13.0994074,8.03563204 C12.3292247,7.34271731 11.4639506,6.84897933 10.5053037,6.55354832 C9.54579753,6.25898708 8.55335309,6.11141654 7.52625185,6.11141654 C6.63548642,6.11141654 5.77021235,6.23782274 4.93214815,6.48831576 C4.09207901,6.73996848 3.35254321,7.1168677 2.71039012,7.62017313 C2.06823704,8.12231886 1.55411358,8.74681189 1.16916543,9.49220258 C0.783930864,10.2375933 0.59145679,11.1035917 0.59145679,12.0910677 C0.59145679,13.114784 0.80082963,13.9372941 1.22100741,14.5617871 C1.63975309,15.1848305 2.16647901,15.6881359 2.80032593,16.069384 C3.43302716,16.450632 4.11842963,16.753891 4.85481481,16.9797406 C5.5912,17.2044305 6.27574321,17.43057 6.90959012,17.6552599 C7.54315062,17.8802398 8.06901728,18.1533468 8.48890864,18.4745809 C8.9088,18.7949452 9.11845926,19.2327282 9.11845926,19.7873499 C9.11845926,20.1164119 9.03682963,20.4022755 8.87414321,20.6452305 C8.71117037,20.8884755 8.49750123,21.0864925 8.23199012,21.2427607 C7.96647901,21.3993189 7.66688395,21.5158677 7.33377778,21.5941468 C6.99952593,21.6721359 6.66928395,21.7109855 6.34448395,21.7109855 C5.67683951,21.7109855 5.03067654,21.5599359 4.4051358,21.2558072 C3.7801679,20.9525483 3.26260741,20.5243328 2.85130864,19.9694212 L0,23.1403034 C0.873866667,23.9552755 1.8153284,24.5443979 2.82581728,24.9085406 C3.83630617,25.2726832 4.93214815,25.4547545 6.11277037,25.4547545 C7.0542321,25.4547545 7.94929383,25.3335669 8.79680988,25.0906119 C9.64518519,24.8485266 10.390163,24.4759762 11.032316,23.9726708 C11.6744691,23.4702351 12.183437,22.8376243 12.560079,22.0751282 C12.936721,21.312632 13.1248988,20.4205406 13.1248988,19.3965344 C13.1248988,18.3226615 12.9195358,17.4647809 12.5090963,16.8231824 C12.0975111,16.1818739 11.5790914,15.6710305 10.9549827,15.2897824 C10.3297284,14.9085344 9.65807407,14.6131034 8.93858765,14.4052289 C8.21910123,14.1976444 7.54744691,13.98977 6.92219259,13.7810258 C6.29693827,13.5731514 5.7796642,13.3226584 5.36807901,13.0272274 C4.95763951,12.7323762 4.75227654,12.3085096 4.75227654,11.7538879 C4.75227654,11.4068506 4.83791605,11.1122894 5.0083358,10.8693344 C5.17961481,10.6272491 5.40302222,10.4321313 5.67683951,10.2845607 C5.94979753,10.1378599 6.24194568,10.0285592 6.54984691,9.96013747 C6.85746173,9.89055607 7.15705679,9.85518553 7.44891852,9.85518553 C7.94528395,9.85518553 8.47200988,9.95578863 9.02852346,10.1549654 C9.58503704,10.3541421 10.0261235,10.6614599 10.3509235,11.0780786 L13.0994074,8.03563204 Z M15.2057383,30.9139948 L19.0577975,30.9139948 L19.0577975,23.635201 L19.1096395,23.635201 C19.554163,24.2414289 20.1241383,24.6708041 20.8172741,24.9212972 C21.5112691,25.1729499 22.2602568,25.2981964 23.0653827,25.2981964 C23.9550025,25.2981964 24.7515358,25.1120661 25.4532642,24.7392258 C26.1555654,24.3678351 26.7501728,23.8685886 27.2390914,23.2455452 C27.7265778,22.6210522 28.1032198,21.9058134 28.3687309,21.1004088 C28.6345284,20.2941344 28.7665679,19.4493003 28.7665679,18.5656165 C28.7665679,17.6126413 28.6216395,16.7367855 28.3297778,15.9389189 C28.0387753,15.1422119 27.6240395,14.453646 27.0844247,13.8720615 C26.5448099,13.2916367 25.8983605,12.8419669 25.1450765,12.5204429 C24.392079,12.2003685 23.5528691,12.0397514 22.6283062,12.0397514 C22.1829235,12.0397514 21.7630321,12.1006351 21.3694914,12.2218227 C20.9759506,12.3427204 20.6119111,12.4989886 20.2776593,12.6897576 C19.9442667,12.8802367 19.6524049,13.0924599 19.4046519,13.3270072 C19.1563259,13.5603948 18.9552593,13.7905933 18.800879,14.0155731 L18.7498963,14.0155731 L18.7498963,12.3514181 L15.2057383,12.3514181 L15.2057383,30.9139948 Z M19.5593185,16.3555375 C20.0977877,15.766415 20.8562272,15.4706941 21.8317728,15.4706941 C22.8081778,15.4706941 23.565758,15.766415 24.1053728,16.3555375 C24.6447012,16.94437 24.9145086,17.7164336 24.9145086,18.6694088 C24.9145086,19.6226739 24.6447012,20.3935778 24.1053728,20.9827003 C23.565758,21.5726925 22.8081778,21.8672537 21.8317728,21.8672537 C20.8562272,21.8672537 20.0977877,21.5726925 19.5593185,20.9827003 C19.0197037,20.3935778 18.7498963,19.6226739 18.7498963,18.6694088 C18.7498963,17.7164336 19.0197037,16.94437 19.5593185,16.3555375 L19.5593185,16.3555375 Z M31.0782617,24.9868196 L34.9311802,24.9868196 L34.9311802,12.3514181 L31.0782617,12.3514181 L31.0782617,24.9868196 Z M31.425116,9.97289406 C31.8610469,10.4141561 32.3880593,10.6359468 33.004721,10.6359468 C33.6205235,10.6359468 34.1472494,10.4141561 34.5843259,9.97289406 C35.021116,9.53076227 35.2390815,8.99730491 35.2390815,8.37397158 C35.2390815,7.74976848 35.021116,7.21660103 34.5843259,6.77533902 C34.1472494,6.33291731 33.6205235,6.11141654 33.004721,6.11141654 C32.3880593,6.11141654 31.8610469,6.33291731 31.425116,6.77533902 C30.9883259,7.21660103 30.7703605,7.74976848 30.7703605,8.37397158 C30.7703605,8.99730491 30.9883259,9.53076227 31.425116,9.97289406 L31.425116,9.97289406 Z M47.1303704,13.7039065 C46.5486519,13.0794134 45.837758,12.6468491 44.9985481,12.4038941 C44.1596247,12.1606491 43.3292938,12.0397514 42.5072691,12.0397514 C41.8565235,12.0397514 41.2143704,12.1220894 40.5819556,12.2861855 C39.9481086,12.4508615 39.3872988,12.706863 38.8986667,13.0539003 C38.4108938,13.4009375 38.0173531,13.8419096 37.7180444,14.3797158 C37.4175901,14.917232 37.2683654,15.5585406 37.2683654,16.3027716 C37.2683654,17.1006382 37.4258963,17.7378879 37.7432494,18.2145204 C38.0594568,18.690863 38.4627358,19.0593545 38.9505086,19.3197049 C39.4379951,19.5786057 39.9607111,19.7737235 40.5172247,19.9041886 C41.0737383,20.033784 41.5964543,20.1561313 42.0839407,20.2683313 C42.5717136,20.3808212 42.9738469,20.519984 43.2912,20.6837902 C43.6074074,20.8487561 43.766084,21.0960599 43.766084,21.424832 C43.766084,21.7718693 43.5862123,22.0096057 43.2264691,22.1403607 C42.8670123,22.2699561 42.464879,22.3351886 42.0194963,22.3351886 C41.4374914,22.3351886 40.9276642,22.2183499 40.4920198,21.9840925 C40.0549432,21.750415 39.6571062,21.4077266 39.297363,20.9568972 L36.9593185,23.5827251 C37.5759802,24.2243235 38.3292642,24.6708041 39.220316,24.9212972 C40.1099358,25.1729499 40.9923951,25.2981964 41.865116,25.2981964 C42.5336198,25.2981964 43.2095704,25.2341235 43.8941136,25.1033685 C44.5798025,24.9737731 45.1953185,24.7490832 45.7435259,24.4275592 C46.2914469,24.1074848 46.7411259,23.6824584 47.0922765,23.1545096 C47.4437136,22.625401 47.6192889,21.9539406 47.6192889,21.1389685 C47.6192889,20.3422615 47.4606123,19.7050119 47.1441185,19.2286693 C46.8267654,18.7520367 46.4246321,18.3751375 45.9371457,18.0976817 C45.4482272,17.8202258 44.9257975,17.6158305 44.3704296,17.4862351 C43.8127704,17.3566398 43.2912,17.2357421 42.8034272,17.1220925 C42.3145086,17.0096026 41.9126617,16.8800072 41.5964543,16.7321468 C41.2791012,16.5857359 41.1201383,16.3555375 41.1201383,16.0435809 C41.1201383,15.6623328 41.2745185,15.3938646 41.5827062,15.2373065 C41.8914667,15.0810382 42.2076741,15.0027592 42.5336198,15.0027592 C43.4581827,15.0027592 44.2031605,15.3584941 44.7679802,16.069384 L47.1303704,13.7039065 Z M65.4179852,6.57935142 L61.4118321,6.57935142 L61.4118321,17.733539 C61.4118321,18.3055561 61.3218963,18.8343747 61.1420247,19.3197049 C60.9621531,19.8047452 60.7092444,20.2254227 60.3844444,20.5799979 C60.0584988,20.9354429 59.6735506,21.2128987 59.2281679,21.4120755 C58.7824988,21.6112522 58.2950123,21.7109855 57.7637037,21.7109855 C57.2338272,21.7109855 56.7408988,21.6112522 56.2869235,21.4120755 C55.8332346,21.2128987 55.4437037,20.9354429 55.1189037,20.5799979 C54.7932444,20.2254227 54.5411951,19.8047452 54.3613235,19.3197049 C54.1814519,18.8343747 54.0918025,18.3055561 54.0918025,17.733539 L54.0918025,6.57935142 L50.0842173,6.57935142 L50.0842173,17.8889375 C50.0842173,18.9810755 50.2471901,19.9868165 50.5728494,20.9055809 C50.8979358,21.8243452 51.3814123,22.6210522 52.0235654,23.2968615 C52.6654321,23.9726708 53.4665481,24.5014894 54.4249086,24.8827375 C55.3847012,25.2639855 56.4962963,25.4547545 57.7637037,25.4547545 C59.0144988,25.4547545 60.1186469,25.2639855 61.0772938,24.8827375 C62.0359407,24.5014894 62.8367704,23.9726708 63.4789235,23.2968615 C64.1210765,22.6210522 64.6045531,21.8243452 64.9302123,20.9055809 C65.2550123,19.9868165 65.4179852,18.9810755 65.4179852,17.8889375 L65.4179852,6.57935142 Z M119.507878,5.38942857 L119.507878,30.5022857 L100.689836,29.6322857 L96.8932458,33.7145714 L96.8932458,6.43542857 L119.507878,5.38942857 Z M121.644444,3.02222222 L121.644444,27.9555556 L120.464257,27.9039549 L120.464257,4.25751973 L100.157965,5.14125219 L100.157965,5.14266979 L98.9777778,5.19398695 L98.9777778,4.0100066 L121.644444,3.02222222 Z M124.666667,0.144571429 L124.666667,25.284 L123.489145,25.2322857 L123.489145,1.38942857 L103.228709,2.28 L103.228709,2.28142857 L102.051187,2.33342857 L102.051187,1.14 L124.666667,0.144571429 Z M83.0637333,12.0397514 C83.9026568,12.0397514 84.6081086,12.1821034 85.1826667,12.4679669 C85.756079,12.7541204 86.2097679,13.1449359 86.5443062,13.638384 C86.8774123,14.132122 87.1177185,14.7137065 87.2626469,15.3796584 C87.408721,16.0482196 87.481758,16.7622987 87.481758,17.5247948 L87.481758,17.5247948 L87.481758,24.9868196 L83.6285531,24.9868196 L83.6285531,17.6297468 C83.6285531,17.0394646 83.5036741,16.53297 83.2562074,16.1079437 C83.0075951,15.684077 82.5665086,15.4706941 81.9338074,15.4706941 C81.4884247,15.4706941 81.1157926,15.5446243 80.816484,15.6924848 C80.5160296,15.8403452 80.2768691,16.0435809 80.0969975,16.3027716 C79.9171259,16.563122 79.7890963,16.866091 79.7120494,17.2131282 C79.634716,17.5601654 79.5954765,17.924308 79.5954765,18.3055561 L79.5954765,18.3055561 L79.5954765,24.9868196 L75.7437037,24.9868196 L75.7437037,18.3055561 C75.7437037,18.0805762 75.7342519,17.8019607 75.7170667,17.4734786 C75.7004543,17.1447065 75.6411654,16.8318801 75.5383407,16.5376088 C75.4346568,16.2427576 75.2685333,15.9913948 75.0368198,15.7835204 C74.8062519,15.5759359 74.4677037,15.4706941 74.022321,15.4706941 C73.526242,15.4706941 73.1232494,15.5617297 72.8153481,15.743801 C72.5071605,15.9258724 72.271437,16.1691173 72.1084642,16.4720863 C71.9454914,16.776215 71.8398025,17.1177437 71.7879605,17.4989917 C71.7361185,17.8802398 71.7106272,18.2785933 71.7106272,18.6952119 L71.7106272,18.6952119 L71.7106272,24.9868196 L67.8577086,24.9868196 L67.8577086,12.3514181 L71.5562469,12.3514181 L71.5562469,14.0668894 L71.6080889,14.0668894 C71.7278123,13.8248041 71.8990914,13.5830088 72.1224988,13.3397638 C72.3444741,13.0965189 72.6099852,12.8802367 72.9178864,12.6897576 C73.2266469,12.4989886 73.5769383,12.3427204 73.9716247,12.2218227 C74.3651654,12.1006351 74.7925037,12.0397514 75.2547852,12.0397514 C76.1286519,12.0397514 76.9031309,12.2218227 77.5802272,12.5859654 C78.2564642,12.9498181 78.7651457,13.5218351 79.1077037,14.3014367 C79.5533728,13.4864646 80.0929877,12.9060398 80.7265481,12.5590026 C81.3592494,12.2131251 82.138884,12.0397514 83.0637333,12.0397514 Z M109.734729,13.0617143 L106.447269,13.0617143 L106.447269,19.6768571 L103.81154,19.6768571 L108.090999,24.0342857 L112.371587,19.6768571 L109.734729,19.6768571 L109.734729,13.0617143 Z" id="Fill-1"></path>
            </g>
        </g>
    </g>
</svg>