<svg xmlns="http://www.w3.org/2000/svg" width="316.173" height="39.792" viewBox="0 0 316.173 39.792">
  <g id="Group_3" data-name="Group 3" transform="translate(-280 -359.032)">
    <g id="Group_2" data-name="Group 2">
      <path id="Path_1" data-name="Path 1" d="M105.924,19.254l-5.829.119V17.032L22.1,18.888v36.08L100.1,56.824V54.483l5.829.118ZM97.515,54.132l-73.4-1.148V20.871l73.4-1.147Zm5.736-1.921-3.156-.043V21.687l3.156-.042Z" transform="translate(352 342)"/>
      <g id="Group_1" data-name="Group 1" transform="translate(352 342)">
        <path id="Path_2" data-name="Path 2" d="M90.027,35.216H82.3v3.25h4.135V43.23a7.356,7.356,0,0,1-2.153.8,12.515,12.515,0,0,1-2.581.256,6.834,6.834,0,0,1-2.837-.571,6.564,6.564,0,0,1-2.182-1.568,7,7,0,0,1-1.411-2.367,8.667,8.667,0,0,1-.5-2.993,7.872,7.872,0,0,1,.5-2.824,6.981,6.981,0,0,1,1.411-2.3,6.489,6.489,0,0,1,2.182-1.54,6.976,6.976,0,0,1,2.837-.556,8.335,8.335,0,0,1,2.923.513,6.633,6.633,0,0,1,2.353,1.455l2.652-2.681a8.934,8.934,0,0,0-3.622-1.982,16.252,16.252,0,0,0-4.334-.556,11.8,11.8,0,0,0-4.292.756,9.686,9.686,0,0,0-3.365,2.153,9.878,9.878,0,0,0-2.21,3.379,11.7,11.7,0,0,0-.8,4.4,11.22,11.22,0,0,0,.8,4.307,9.622,9.622,0,0,0,5.575,5.461,11.838,11.838,0,0,0,4.292.756,17.43,17.43,0,0,0,8.355-2ZM55.437,47.023H59.03V38.638h8.9v-3.25h-8.9v-5.3h9.439V26.833H55.437ZM51.3,28.4a7.168,7.168,0,0,0-2.695-1.6,9.989,9.989,0,0,0-3.094-.485,10.231,10.231,0,0,0-2.738.371,7.362,7.362,0,0,0-2.381,1.126,5.862,5.862,0,0,0-1.682,1.9,5.439,5.439,0,0,0-.642,2.709,5.1,5.1,0,0,0,.713,2.867A5.61,5.61,0,0,0,40.551,37a9.774,9.774,0,0,0,2.31,1.011c.836.246,1.606.51,2.31.783a6.355,6.355,0,0,1,1.768,1.014,2.11,2.11,0,0,1,.713,1.711,2.332,2.332,0,0,1-.314,1.213,2.672,2.672,0,0,1-.827.869,3.94,3.94,0,0,1-1.141.514,4.788,4.788,0,0,1-1.254.17,4.861,4.861,0,0,1-2.267-.555,4.535,4.535,0,0,1-1.726-1.557L37.414,44.8a6.978,6.978,0,0,0,2.994,2.11,10.6,10.6,0,0,0,3.622.629,9.848,9.848,0,0,0,2.823-.4,6.93,6.93,0,0,0,2.353-1.2,5.755,5.755,0,0,0,1.611-2.01,6.344,6.344,0,0,0,.6-2.838,5.171,5.171,0,0,0-.713-2.88,5.714,5.714,0,0,0-1.768-1.739,9.453,9.453,0,0,0-2.31-1.027q-1.256-.369-2.31-.77a6.981,6.981,0,0,1-1.768-.941,1.849,1.849,0,0,1-.713-1.568,2.344,2.344,0,0,1,.285-1.183,2.377,2.377,0,0,1,.756-.813,3.315,3.315,0,0,1,1.055-.457,5.155,5.155,0,0,1,1.212-.142,5.326,5.326,0,0,1,2.011.385,3.314,3.314,0,0,1,1.525,1.212ZM30.485,47.023h3.593V26.833H30.485Z"/>
        <path id="Path_3" data-name="Path 3" d="M204.554,47.3a1.815,1.815,0,0,1-.374.614,1.944,1.944,0,0,1-2.166.425,1.867,1.867,0,0,1-.6-.425,1.825,1.825,0,0,1-.372-.614,2.086,2.086,0,0,1,0-1.439,1.792,1.792,0,0,1,.372-.613,1.891,1.891,0,0,1,.6-.428,2.013,2.013,0,0,1,1.573,0,1.86,1.86,0,0,1,.593.428,1.782,1.782,0,0,1,.374.613,2.117,2.117,0,0,1,0,1.439m-5.182,5.52h1.6V48.97h.04a2.277,2.277,0,0,0,.307.324,2.373,2.373,0,0,0,.453.315,2.748,2.748,0,0,0,.614.24,3.061,3.061,0,0,0,.8.094,3.019,3.019,0,0,0,1.253-.26,2.931,2.931,0,0,0,.979-.713,3.289,3.289,0,0,0,.635-1.068,3.774,3.774,0,0,0,.227-1.32,4.014,4.014,0,0,0-.214-1.319,3.043,3.043,0,0,0-.627-1.068,2.976,2.976,0,0,0-1-.713,3.244,3.244,0,0,0-1.319-.26,3.024,3.024,0,0,0-1.267.268,2.053,2.053,0,0,0-.935.851h-.026v-.959h-1.521Zm-1.677-9.44h-1.6v3.493a2.357,2.357,0,0,1-.08.615,1.42,1.42,0,0,1-.261.519,1.277,1.277,0,0,1-.453.36,1.508,1.508,0,0,1-.674.133,1,1,0,0,1-.659-.192,1.173,1.173,0,0,1-.346-.48,2.075,2.075,0,0,1-.141-.616c-.018-.216-.027-.414-.027-.591V43.382h-1.6v4.039a3.676,3.676,0,0,0,.12.948,2.192,2.192,0,0,0,.4.806,1.951,1.951,0,0,0,.728.561,2.589,2.589,0,0,0,1.087.207,2.063,2.063,0,0,0,1.268-.354,2.248,2.248,0,0,0,.692-.834h.027v1.028H197.7Zm-12.569,2.481a1.78,1.78,0,0,1,.373-.613,1.891,1.891,0,0,1,.6-.428,2.013,2.013,0,0,1,1.573,0,1.86,1.86,0,0,1,.593.428,1.782,1.782,0,0,1,.374.613,2.117,2.117,0,0,1,0,1.439,1.815,1.815,0,0,1-.374.614,1.944,1.944,0,0,1-2.166.425,1.867,1.867,0,0,1-.6-.425,1.812,1.812,0,0,1-.373-.614,2.1,2.1,0,0,1,0-1.439m-1.452,2.1a3.215,3.215,0,0,0,.74,1.061,3.285,3.285,0,0,0,1.106.68,3.973,3.973,0,0,0,2.72,0,3.27,3.27,0,0,0,1.107-.68,3.214,3.214,0,0,0,.74-1.061,3.61,3.61,0,0,0,0-2.759,3.2,3.2,0,0,0-.74-1.061,3.27,3.27,0,0,0-1.107-.68,3.973,3.973,0,0,0-2.72,0,3.285,3.285,0,0,0-1.106.68,3.2,3.2,0,0,0-.74,1.061,3.61,3.61,0,0,0,0,2.759m-4.9,1.821h1.6V46.355a2.031,2.031,0,0,1,.061-.4,1.612,1.612,0,0,1,.24-.534,1.633,1.633,0,0,1,.52-.472,1.725,1.725,0,0,1,.9-.207,2.361,2.361,0,0,1,.38.033c.129.023.26.051.394.088V43.316c-.1-.027-.194-.049-.287-.066a1.5,1.5,0,0,0-.288-.028,2.1,2.1,0,0,0-1.132.307,2.017,2.017,0,0,0-.76.867h-.028V43.382h-1.6Zm-1.706-5.52h-3.614v1.52h1.934v2.226a3.4,3.4,0,0,1-1.007.373,5.826,5.826,0,0,1-1.207.12,3.192,3.192,0,0,1-1.326-.266,3.04,3.04,0,0,1-1.019-.734,3.259,3.259,0,0,1-.661-1.106,4.048,4.048,0,0,1-.234-1.4,3.678,3.678,0,0,1,.234-1.321,3.244,3.244,0,0,1,.661-1.072,2.993,2.993,0,0,1,1.019-.721,3.272,3.272,0,0,1,1.326-.259,3.893,3.893,0,0,1,1.367.24,3.134,3.134,0,0,1,1.1.679l1.24-1.253a4.161,4.161,0,0,0-1.693-.926,7.6,7.6,0,0,0-2.027-.26,5.521,5.521,0,0,0-2.006.352,4.537,4.537,0,0,0-1.574,1.007,4.587,4.587,0,0,0-1.033,1.58,5.469,5.469,0,0,0-.374,2.061,5.237,5.237,0,0,0,.374,2.012,4.494,4.494,0,0,0,2.607,2.554,5.521,5.521,0,0,0,2.006.354,8.163,8.163,0,0,0,3.907-.934Zm-17.8,5.573-.307.759q-.106.255-.2.434a.877.877,0,0,1-.233.293.926.926,0,0,1-.34.168,1.984,1.984,0,0,1-.494.052,1.917,1.917,0,0,1-.42-.046,3.786,3.786,0,0,1-.393-.114l-.2,1.44a4.735,4.735,0,0,0,1.228.16,3.2,3.2,0,0,0,.912-.113,1.89,1.89,0,0,0,.66-.346,2.279,2.279,0,0,0,.487-.574,5.059,5.059,0,0,0,.38-.793l3.025-7.774h-1.666l-1.6,4.44h-.027l-1.788-4.44h-1.759Zm-7.454-.053h1.6V46.355a1.992,1.992,0,0,1,.059-.4,1.629,1.629,0,0,1,.239-.534,1.659,1.659,0,0,1,.521-.472,1.728,1.728,0,0,1,.9-.207,2.361,2.361,0,0,1,.38.033c.129.023.26.051.4.088V43.316c-.1-.027-.2-.049-.287-.066a1.528,1.528,0,0,0-.288-.028,2.1,2.1,0,0,0-1.132.307,2.019,2.019,0,0,0-.761.867h-.026V43.382h-1.6Zm-6.46-3.92a1.782,1.782,0,0,1,.374-.613,1.86,1.86,0,0,1,.593-.428,2.013,2.013,0,0,1,1.573,0,1.891,1.891,0,0,1,.6.428,1.826,1.826,0,0,1,.373.613,2.1,2.1,0,0,1,0,1.439,1.8,1.8,0,0,1-.968,1.039,1.895,1.895,0,0,1-2.166-.425,1.815,1.815,0,0,1-.374-.614,2.082,2.082,0,0,1-.126-.72,3.9,3.9,0,0,1,.126-.719m-1.453,2.1a3.229,3.229,0,0,0,.74,1.061,3.28,3.28,0,0,0,1.107.68,3.973,3.973,0,0,0,2.72,0,3.3,3.3,0,0,0,1.107-.68,3.242,3.242,0,0,0,.739-1.061,3.61,3.61,0,0,0,0-2.759,3.231,3.231,0,0,0-.739-1.061,3.3,3.3,0,0,0-1.107-.68,3.973,3.973,0,0,0-2.72,0,3.28,3.28,0,0,0-1.107.68,3.219,3.219,0,0,0-.74,1.061,3.61,3.61,0,0,0,0,2.759m-4.833-3.22v2.933a4.9,4.9,0,0,0,.087.987,1.6,1.6,0,0,0,.319.713,1.363,1.363,0,0,0,.64.427,3.253,3.253,0,0,0,1.047.141,5.652,5.652,0,0,0,.647-.047,2.06,2.06,0,0,0,.62-.166V48.382a.978.978,0,0,1-.4.153,2.429,2.429,0,0,1-.467.047.784.784,0,0,1-.713-.28,1.392,1.392,0,0,1-.18-.76v-2.8h1.76v-1.36h-1.76V41.529h-1.6v1.853h-1.32v1.36Zm-1.92-.547a2.841,2.841,0,0,0-1.087-.74,3.489,3.489,0,0,0-1.232-.233,3.84,3.84,0,0,0-1.361.24,3.266,3.266,0,0,0-1.106.68,3.19,3.19,0,0,0-.74,1.061,3.61,3.61,0,0,0,0,2.759,3.2,3.2,0,0,0,.74,1.061,3.266,3.266,0,0,0,1.106.68,3.84,3.84,0,0,0,1.361.24,3.571,3.571,0,0,0,.5-.047,3.886,3.886,0,0,0,1.247-.434,2.415,2.415,0,0,0,.553-.414L136.067,47.9a1.494,1.494,0,0,1-.547.447,1.582,1.582,0,0,1-.692.153,1.838,1.838,0,0,1-1.381-.586,1.812,1.812,0,0,1-.373-.614,2.1,2.1,0,0,1,0-1.439,1.779,1.779,0,0,1,.373-.613,1.86,1.86,0,0,1,.593-.428,1.837,1.837,0,0,1,.788-.16,1.252,1.252,0,0,1,.625.174,2.546,2.546,0,0,1,.587.466Zm-8.734,3.08a1.45,1.45,0,0,1-.393,1.074,1.993,1.993,0,0,1-1.62.346,1.094,1.094,0,0,1-.36-.153.9.9,0,0,1-.26-.259.68.68,0,0,1-.1-.381.638.638,0,0,1,.253-.539,1.74,1.74,0,0,1,.62-.293,3.851,3.851,0,0,1,.78-.127c.276-.02.525-.027.747-.027h.333Zm.094,2.508h1.44V46.1c0-.152-.005-.328-.014-.527a3.56,3.56,0,0,0-.086-.621,2.582,2.582,0,0,0-.24-.633,1.743,1.743,0,0,0-.474-.553,2.535,2.535,0,0,0-.773-.394,3.716,3.716,0,0,0-1.147-.153,4.588,4.588,0,0,0-1.473.24,3.1,3.1,0,0,0-1.247.788l.84.839a2.379,2.379,0,0,1,.76-.486,2.461,2.461,0,0,1,.947-.182,1.752,1.752,0,0,1,1.053.3,1.038,1.038,0,0,1,.414.9v.171h-.4c-.267,0-.552.008-.854.022a7.755,7.755,0,0,0-.9.094,4.971,4.971,0,0,0-.86.219,2.568,2.568,0,0,0-.726.394,1.825,1.825,0,0,0-.5.611,1.939,1.939,0,0,0-.187.889,1.711,1.711,0,0,0,.2.84,1.841,1.841,0,0,0,.527.6,2.3,2.3,0,0,0,.746.36,3.118,3.118,0,0,0,.86.121,2.742,2.742,0,0,0,1.174-.248,2.061,2.061,0,0,0,.88-.793h.04Zm-11.507,0h1.68v-3.92h4.16V44.341h-4.16V41.863h4.413V40.341H117Z"/>
        <path id="Path_4" data-name="Path 4" d="M243.974,28.779a2.073,2.073,0,0,0-1.014-.753,3.789,3.789,0,0,0-1.267-.22,3.834,3.834,0,0,0-.947.119,2.515,2.515,0,0,0-.827.373,1.966,1.966,0,0,0-.58.648,1.874,1.874,0,0,0-.218.927,1.613,1.613,0,0,0,.251.96,1.764,1.764,0,0,0,.641.54,3.225,3.225,0,0,0,.834.28c.3.058.574.12.834.185a2.3,2.3,0,0,1,.639.261.542.542,0,0,1,.254.493.553.553,0,0,1-.1.327.835.835,0,0,1-.262.234,1.207,1.207,0,0,1-.345.133,1.707,1.707,0,0,1-.362.04,1.6,1.6,0,0,1-.859-.22,3.04,3.04,0,0,1-.66-.567l-1.067,1a2.619,2.619,0,0,0,1.121.774,4.244,4.244,0,0,0,1.374.213,4.658,4.658,0,0,0,.986-.107,2.826,2.826,0,0,0,.887-.346,1.939,1.939,0,0,0,.64-.634,1.789,1.789,0,0,0,.246-.966,1.681,1.681,0,0,0-.254-.987,1.811,1.811,0,0,0-.638-.567,3.3,3.3,0,0,0-.834-.306c-.3-.068-.576-.131-.834-.194a2.752,2.752,0,0,1-.639-.226.447.447,0,0,1-.254-.427.544.544,0,0,1,.307-.52,1.34,1.34,0,0,1,.627-.16,1.468,1.468,0,0,1,1.254.653ZM227.56,34.366h1.6V30.873a2.31,2.31,0,0,1,.08-.615,1.432,1.432,0,0,1,.259-.519,1.3,1.3,0,0,1,.454-.36,1.526,1.526,0,0,1,.673-.133.965.965,0,0,1,.84.353,1.607,1.607,0,0,1,.254.953v3.814h1.6V30.9a2.538,2.538,0,0,1,.074-.606,1.585,1.585,0,0,1,.238-.535,1.266,1.266,0,0,1,.428-.373,1.339,1.339,0,0,1,.633-.139,1.262,1.262,0,0,1,.588.12.945.945,0,0,1,.359.327,1.332,1.332,0,0,1,.186.479,2.854,2.854,0,0,1,.054.567v3.627h1.6V30.552a4.594,4.594,0,0,0-.119-1.073,2.388,2.388,0,0,0-.395-.873,1.877,1.877,0,0,0-.713-.587,2.46,2.46,0,0,0-1.08-.213,2.536,2.536,0,0,0-1.24.286,2.253,2.253,0,0,0-.867.9,1.945,1.945,0,0,0-2-1.187,2.082,2.082,0,0,0-1.274.353,2.167,2.167,0,0,0-.686.806h-.026v-1h-1.52Zm-6.307-3.84a1.846,1.846,0,0,1,.513-1.107,1.557,1.557,0,0,1,1.14-.414,1.651,1.651,0,0,1,1.187.408,1.512,1.512,0,0,1,.44,1.113Zm4.879,1.2v-.44a4.643,4.643,0,0,0-.218-1.488,3.14,3.14,0,0,0-.614-1.086,2.632,2.632,0,0,0-.947-.673,3.1,3.1,0,0,0-1.221-.233,3.844,3.844,0,0,0-1.359.239,3.3,3.3,0,0,0-1.108.681,3.238,3.238,0,0,0-.739,1.06,3.622,3.622,0,0,0,0,2.759,3.231,3.231,0,0,0,.739,1.061,3.279,3.279,0,0,0,1.108.68,3.845,3.845,0,0,0,1.359.24,3.709,3.709,0,0,0,1.453-.293,3.251,3.251,0,0,0,1.254-.987l-1.146-.867a2.789,2.789,0,0,1-.713.62,1.91,1.91,0,0,1-1.007.247,1.75,1.75,0,0,1-1.16-.4,1.629,1.629,0,0,1-.56-1.12Zm-10.906-2.4v2.932a4.985,4.985,0,0,0,.087.988,1.623,1.623,0,0,0,.319.713,1.369,1.369,0,0,0,.641.426,3.253,3.253,0,0,0,1.047.141,5.432,5.432,0,0,0,.646-.047,2.045,2.045,0,0,0,.619-.166V32.965a.968.968,0,0,1-.4.154,2.51,2.51,0,0,1-.466.047.79.79,0,0,1-.715-.281,1.4,1.4,0,0,1-.179-.759v-2.8h1.759V27.965h-1.759V26.112h-1.6v1.853h-1.32v1.361Zm-2.279-.547a2.064,2.064,0,0,0-1.014-.753,3.784,3.784,0,0,0-2.213-.1,2.506,2.506,0,0,0-.827.373,1.944,1.944,0,0,0-.58.648,1.853,1.853,0,0,0-.22.927,1.6,1.6,0,0,0,.253.96,1.761,1.761,0,0,0,.64.54,3.238,3.238,0,0,0,.834.28q.445.087.833.185a2.283,2.283,0,0,1,.639.261.6.6,0,0,1,.154.82.828.828,0,0,1-.26.234,1.231,1.231,0,0,1-.347.133,1.694,1.694,0,0,1-.359.04,1.585,1.585,0,0,1-.859-.22,2.954,2.954,0,0,1-.661-.567l-1.067,1a2.61,2.61,0,0,0,1.12.774,4.246,4.246,0,0,0,1.373.213,4.658,4.658,0,0,0,.986-.107,2.832,2.832,0,0,0,.888-.346,1.939,1.939,0,0,0,.64-.634,1.789,1.789,0,0,0,.247-.966,1.689,1.689,0,0,0-.254-.987,1.826,1.826,0,0,0-.64-.567,3.258,3.258,0,0,0-.834-.306c-.3-.068-.575-.131-.834-.194a2.821,2.821,0,0,1-.639-.226.448.448,0,0,1-.253-.427.543.543,0,0,1,.306-.52,1.346,1.346,0,0,1,.627-.16,1.466,1.466,0,0,1,1.254.653Zm-9.533,5.64-.308.76q-.106.253-.2.434a.858.858,0,0,1-.573.46,1.968,1.968,0,0,1-.494.053,1.911,1.911,0,0,1-.42-.047,3.828,3.828,0,0,1-.393-.114l-.2,1.441a4.727,4.727,0,0,0,1.227.16,3.284,3.284,0,0,0,.913-.113,1.86,1.86,0,0,0,.66-.348,2.307,2.307,0,0,0,.487-.572,5.118,5.118,0,0,0,.381-.794l3.026-7.774h-1.667l-1.6,4.441h-.027l-1.786-4.441h-1.76Zm-3.254-8.76a3.356,3.356,0,0,0-1.26-.747,4.643,4.643,0,0,0-1.447-.226,4.8,4.8,0,0,0-1.28.173,3.445,3.445,0,0,0-1.113.526,2.743,2.743,0,0,0-.787.888,2.547,2.547,0,0,0-.3,1.266,2.378,2.378,0,0,0,.333,1.34,2.635,2.635,0,0,0,.826.8,4.608,4.608,0,0,0,1.08.474q.588.172,1.08.366a2.964,2.964,0,0,1,.829.474.991.991,0,0,1,.332.8,1.085,1.085,0,0,1-.147.566,1.244,1.244,0,0,1-.387.407,1.764,1.764,0,0,1-.533.239,2.185,2.185,0,0,1-.586.081,2.27,2.27,0,0,1-1.06-.26,2.1,2.1,0,0,1-.807-.727l-1.268,1.227a3.279,3.279,0,0,0,1.4.987,4.992,4.992,0,0,0,1.694.293,4.583,4.583,0,0,0,1.32-.187,3.249,3.249,0,0,0,1.1-.56,2.7,2.7,0,0,0,.753-.94,2.941,2.941,0,0,0,.279-1.327,2.419,2.419,0,0,0-.332-1.346,2.66,2.66,0,0,0-.827-.813,4.337,4.337,0,0,0-1.08-.48c-.392-.116-.751-.237-1.08-.361a3.338,3.338,0,0,1-.827-.439.867.867,0,0,1-.333-.734,1.084,1.084,0,0,1,.134-.553,1.109,1.109,0,0,1,.353-.38,1.531,1.531,0,0,1,.492-.213,2.362,2.362,0,0,1,.568-.067,2.518,2.518,0,0,1,.94.179,1.555,1.555,0,0,1,.713.568Zm-17.734,8.707h1.6V30.873a2.351,2.351,0,0,1,.08-.615,1.435,1.435,0,0,1,.261-.519,1.266,1.266,0,0,1,.453-.36,1.522,1.522,0,0,1,.674-.133,1.009,1.009,0,0,1,.652.193,1.153,1.153,0,0,1,.353.48,2.093,2.093,0,0,1,.141.614q.027.325.027.593v3.24h1.6v-4.04a3.691,3.691,0,0,0-.12-.947,2.13,2.13,0,0,0-.4-.8,2.055,2.055,0,0,0-.727-.56,2.511,2.511,0,0,0-1.087-.213,2.057,2.057,0,0,0-1.268.353,2.248,2.248,0,0,0-.692.834h-.027V27.965h-1.52Zm-6.593-3.92a1.78,1.78,0,0,1,.373-.613,1.873,1.873,0,0,1,.594-.427,1.891,1.891,0,0,1,2.166.427,1.779,1.779,0,0,1,.373.613,2.1,2.1,0,0,1,0,1.439,1.793,1.793,0,0,1-.373.614,1.848,1.848,0,0,1-.594.426,2,2,0,0,1-1.572,0,1.87,1.87,0,0,1-.594-.426,1.794,1.794,0,0,1-.373-.614,2.1,2.1,0,0,1,0-1.439m-1.453,2.1a3.207,3.207,0,0,0,.741,1.061,3.25,3.25,0,0,0,1.106.68,3.973,3.973,0,0,0,2.72,0,3.279,3.279,0,0,0,1.106-.68,3.187,3.187,0,0,0,.739-1.061,3.6,3.6,0,0,0,0-2.759,3.193,3.193,0,0,0-.739-1.06,3.3,3.3,0,0,0-1.106-.681,3.989,3.989,0,0,0-2.72,0,3.268,3.268,0,0,0-1.106.681,3.213,3.213,0,0,0-.741,1.06,3.61,3.61,0,0,0,0,2.759m-3.334-6.08a.985.985,0,0,0,.727.288,1.058,1.058,0,0,0,.74-.274.935.935,0,0,0,0-1.373,1.054,1.054,0,0,0-.74-.274.984.984,0,0,0-.727.287.935.935,0,0,0,0,1.346m-.059,7.9h1.6v-6.4h-1.6Zm-4.654-5.04v2.932a5.067,5.067,0,0,0,.086.988,1.614,1.614,0,0,0,.321.713,1.361,1.361,0,0,0,.64.426,3.248,3.248,0,0,0,1.047.141,5.433,5.433,0,0,0,.647-.047,2.053,2.053,0,0,0,.619-.166V32.965a.978.978,0,0,1-.4.154,2.49,2.49,0,0,1-.464.047.786.786,0,0,1-.715-.281,1.4,1.4,0,0,1-.18-.759v-2.8h1.76V27.965h-1.76V26.112h-1.6v1.853h-1.32v1.361Zm-3.826,2.533a1.449,1.449,0,0,1-.394,1.074,1.664,1.664,0,0,1-1.22.393,1.693,1.693,0,0,1-.4-.047,1.1,1.1,0,0,1-.362-.153.96.96,0,0,1-.26-.26.7.7,0,0,1-.1-.38.64.64,0,0,1,.254-.54,1.741,1.741,0,0,1,.62-.293,3.9,3.9,0,0,1,.78-.127c.276-.019.524-.027.746-.027h.334Zm.093,2.507h1.44v-3.68c0-.151,0-.327-.013-.527a3.384,3.384,0,0,0-.087-.62,2.619,2.619,0,0,0-.239-.633,1.756,1.756,0,0,0-.474-.553,2.53,2.53,0,0,0-.774-.394,3.714,3.714,0,0,0-1.146-.153,4.593,4.593,0,0,0-1.474.239,3.1,3.1,0,0,0-1.246.788l.84.839a2.375,2.375,0,0,1,.76-.486,2.466,2.466,0,0,1,.945-.181,1.75,1.75,0,0,1,1.055.3,1.04,1.04,0,0,1,.413.9v.173h-.4c-.268,0-.552.006-.854.02a7.71,7.71,0,0,0-.9.094,5.039,5.039,0,0,0-.86.219,2.549,2.549,0,0,0-.727.394,1.829,1.829,0,0,0-.5.612,1.932,1.932,0,0,0-.187.888,1.719,1.719,0,0,0,.2.84,1.867,1.867,0,0,0,.528.6,2.325,2.325,0,0,0,.747.361,3.106,3.106,0,0,0,.86.12,2.755,2.755,0,0,0,1.173-.247,2.05,2.05,0,0,0,.88-.793h.04Zm-15.933,0h1.6V30.873a2.27,2.27,0,0,1,.08-.615,1.433,1.433,0,0,1,.26-.519,1.275,1.275,0,0,1,.453-.36,1.523,1.523,0,0,1,.673-.133.967.967,0,0,1,.841.353,1.614,1.614,0,0,1,.254.953v3.814h1.6V30.9a2.589,2.589,0,0,1,.072-.606,1.534,1.534,0,0,1,.241-.535,1.262,1.262,0,0,1,.427-.373,1.331,1.331,0,0,1,.633-.139,1.255,1.255,0,0,1,.587.12.94.94,0,0,1,.36.327,1.35,1.35,0,0,1,.186.479,2.931,2.931,0,0,1,.054.567v3.627h1.6V30.552a4.592,4.592,0,0,0-.121-1.073,2.417,2.417,0,0,0-.392-.873,1.9,1.9,0,0,0-.714-.587,2.467,2.467,0,0,0-1.08-.213,2.533,2.533,0,0,0-1.24.286,2.266,2.266,0,0,0-.867.9,1.945,1.945,0,0,0-2-1.187,2.074,2.074,0,0,0-1.273.353,2.173,2.173,0,0,0-.688.806h-.025v-1h-1.52Zm-5.627,0h1.6V30.939a1.947,1.947,0,0,1,.061-.4A1.571,1.571,0,0,1,142.94,30a1.633,1.633,0,0,1,.52-.472,1.718,1.718,0,0,1,.9-.207,2.261,2.261,0,0,1,.38.033c.129.022.259.051.392.087V27.9c-.1-.026-.192-.049-.285-.066a1.517,1.517,0,0,0-.287-.027,2.091,2.091,0,0,0-1.133.307,2,2,0,0,0-.76.866h-.027V27.965h-1.6Zm-6.328-3.92a1.784,1.784,0,0,1,.375-.613,1.857,1.857,0,0,1,.593-.427,2.013,2.013,0,0,1,1.573,0,1.861,1.861,0,0,1,.594.427,1.779,1.779,0,0,1,.373.613,2.1,2.1,0,0,1,0,1.439,1.793,1.793,0,0,1-.373.614,1.859,1.859,0,0,1-.594.426,2,2,0,0,1-1.573,0,1.855,1.855,0,0,1-.593-.426,1.8,1.8,0,0,1-.375-.614,2.133,2.133,0,0,1,0-1.439m-1.452,2.1A3.231,3.231,0,0,0,134,33.606a3.279,3.279,0,0,0,1.108.68,3.976,3.976,0,0,0,2.721,0,3.289,3.289,0,0,0,1.106-.68,3.187,3.187,0,0,0,.739-1.061,3.61,3.61,0,0,0,0-2.759,3.193,3.193,0,0,0-.739-1.06,3.308,3.308,0,0,0-1.106-.681,3.992,3.992,0,0,0-2.721,0,3.3,3.3,0,0,0-1.108.681,3.238,3.238,0,0,0-.739,1.06,3.622,3.622,0,0,0,0,2.759m-4.073,1.821h1.6v-5.04h1.48V27.965h-1.48V26.806a3.749,3.749,0,0,1,.033-.508,1.039,1.039,0,0,1,.146-.419.833.833,0,0,1,.314-.288,1.154,1.154,0,0,1,.534-.1,2.12,2.12,0,0,1,.333.026c.106.018.218.039.333.067l.107-1.361a5.268,5.268,0,0,0-1.013-.092,3.041,3.041,0,0,0-1.214.206,1.659,1.659,0,0,0-.726.593,2.341,2.341,0,0,0-.354.927,7.152,7.152,0,0,0-.093,1.207v.906h-1.32v1.361h1.32Zm-8.494,0h1.6V30.873a2.31,2.31,0,0,1,.08-.615,1.433,1.433,0,0,1,.26-.519,1.275,1.275,0,0,1,.453-.36,1.526,1.526,0,0,1,.673-.133,1.013,1.013,0,0,1,.654.193,1.153,1.153,0,0,1,.353.48,2.158,2.158,0,0,1,.14.614q.027.325.027.593v3.24h1.6v-4.04a3.691,3.691,0,0,0-.12-.947,2.13,2.13,0,0,0-.4-.8,2.055,2.055,0,0,0-.727-.56,2.511,2.511,0,0,0-1.087-.213,2.046,2.046,0,0,0-1.266.353,2.235,2.235,0,0,0-.694.834h-.026V27.965h-1.521Zm-3.733,0h1.68V24.925h-1.68Z"/>
      </g>
    </g>
    <text id="Powered_by" data-name="Powered by" transform="translate(280 385)" font-size="15" font-family="HelveticaNeue-Bold, Helvetica Neue" font-weight="700"><tspan x="0" y="0">Powered by</tspan></text>
  </g>
</svg>
