<svg xmlns="http://www.w3.org/2000/svg" width="94.48" height="94.48" viewBox="0 0 94.48 94.48">
  <g>
    <path d="M70.62,25.24H63.74v-4h0a.92.92,0,0,0,0-.16,6.88,6.88,0,0,0-6.88-6.87h-33A6.88,6.88,0,0,0,17,21.11v44A6.88,6.88,0,0,0,23.86,72h6.88v1.38a6.89,6.89,0,0,0,6.88,6.88h33a6.88,6.88,0,0,0,6.87-6.88V32.11A6.88,6.88,0,0,0,70.62,25.24Zm4.12,48.13a4.12,4.12,0,0,1-4.12,4.12h-33a4.12,4.12,0,0,1-4.13-4.12V32.11A4.13,4.13,0,0,1,37.62,28h33a4.13,4.13,0,0,1,4.12,4.12Z"/>
    <rect x="41.74" y="36.24" width="24.75" height="2.75"/>
    <path d="M43.11,47.24H41.74V50H66.49V47.24Z"/>
    <path d="M43.11,58.24H41.74V61H66.49V58.24Z"/>
    <path d="M43.11,69.24H41.74V72H66.49V69.24Z"/>
  </g>
</svg>
