<svg xmlns="http://www.w3.org/2000/svg" width="94.48" height="94.48" viewBox="0 0 94.48 94.48">
  <g>
    <g style="isolation: isolate">
      <g style="isolation: isolate">
        <path d="M63.13,42.38A15.11,15.11,0,0,1,64,36.72a11.42,11.42,0,0,1,3.16-4.16,16.09,16.09,0,0,0,3.06-3.33A5.32,5.32,0,0,0,71,26.52c0-2.86-1.32-4.3-4-4.3a4,4,0,0,0-3,1.16,4.5,4.5,0,0,0-1.18,3.19H55.46A9.79,9.79,0,0,1,58.6,19c2.06-1.83,4.86-2.75,8.42-2.75s6.37.87,8.35,2.61a9.25,9.25,0,0,1,3,7.35,9,9,0,0,1-1,4.08A17,17,0,0,1,74,34.53l-2.06,2a7,7,0,0,0-2.21,4.34l-.1,1.55Zm-.73,7.79a3.69,3.69,0,0,1,1.15-2.8,4.53,4.53,0,0,1,5.92,0,3.69,3.69,0,0,1,1.15,2.8,3.62,3.62,0,0,1-1.13,2.75,4.62,4.62,0,0,1-6,0A3.62,3.62,0,0,1,62.4,50.17Z"/>
      </g>
    </g>
    <path d="M67.43,71.88h0l-2.5,2.48a13.13,13.13,0,0,1-12.39,3.54,43.39,43.39,0,0,1-12.67-5.68,58.28,58.28,0,0,1-10-8.06,58.52,58.52,0,0,1-7.47-9.06,46.17,46.17,0,0,1-5.61-11.35,13.15,13.15,0,0,1,3.28-13.41L23,27.4a2.09,2.09,0,0,1,2.95,0h0l9.22,9.23a2.09,2.09,0,0,1,0,2.95h0l-4.25,4.15a4.42,4.42,0,0,0-.46,5.75,63.15,63.15,0,0,0,6.48,7.57,64.26,64.26,0,0,0,8.53,7.17,4.45,4.45,0,0,0,5.68-.49l4.08-4a2.09,2.09,0,0,1,3,0h0l9.24,9.25A2.09,2.09,0,0,1,67.43,71.88Z"/>
  </g>
</svg>
